<svg xmlns="http://www.w3.org/2000/svg" viewBox="0 0 511.28 323.14"><defs><style>.cls-1{fill:#e5bd7c;}</style></defs><g id="Layer_2" data-name="Layer 2"><g id="Layer_1-2" data-name="Layer 1"><g id="Layer_2-2" data-name="Layer 2"><g id="Graphic_Elements" data-name="Graphic Elements"><path class="cls-1" d="M8.94,200.22c3.57-29.48,9.83-58.61,25.29-84.32C63.26,67.6,116.94,28,169.66,9.61c60.57-21.13,125.61-3.77,183.91,17,52.06,18.58,100.61,47.85,127.43,98,30.62,57.22,31.09,125.36,30,188.62-.07,4.06-6.38,4.08-6.31,0,.91-52.61.72-107.13-16.88-157.37-19.51-55.71-62-92.64-115.36-115.12C318.83,18.09,252.34-2.87,194.15,9.34c-54.83,11.51-109,49.09-143.06,93.21-22.2,28.73-31.51,62.09-35.85,97.67-4.38,36-6.9,72.22-8.93,108.38-.22,4-6.53,4.07-6.3,0C2,272.44,4.57,236.19,8.94,200.22Z"/><path class="cls-1" d="M56.36,135.72C73.08,85.31,110.26,53,159.54,35.53,258,.68,382.07,23.68,438.79,118.23c33.35,55.59,37.84,127.61,41.48,190.81.59,10.15-15.19,10.12-15.77,0-3.06-53.12-7-110.52-27.89-160.11-18.08-42.93-52.8-76.15-95.05-95.12C254.32,14.65,109.9,34.43,73.27,135c-20.62,56.58-18.77,121.14-19,180.51,0,10.16-15.8,10.18-15.77,0C38.73,256.22,37.46,192.65,56.36,135.72Z"/><path class="cls-1" d="M168.14,65.42c42.84-18.2,97.52-15,142.38-6.54,47.19,8.88,78.26,38.41,99.05,80.67C436,193.3,447.68,253.46,445,313.2c-.37,8.1-13,8.15-12.62,0,2.74-60.48-9.26-122.41-38.13-175.95C380,110.89,360.56,88.31,331.88,77.69,305.59,68,276.37,66.65,248.61,66c-29.68-.72-60.25,1.74-86.7,16.46-23,12.82-41.07,32.93-54.19,55.59C76.72,191.59,75.86,255.45,75,315.6c-.12,8.12-12.74,8.15-12.62,0C63.68,225.52,71.61,106.42,168.14,65.42Z"/><path class="cls-1" d="M124.09,149.47c30.18-41.24,80.16-56.12,129-60,23.25-1.87,47.71-1.16,69.48,8.1,24.15,10.28,39.71,31,52.54,53.09C402.88,198.49,415.9,253.73,413.77,309c-.31,8.1-12.93,8.14-12.61,0,1.9-49.42-8.5-98.75-31.71-142.54-11.61-21.9-25.65-45-48.79-56-20.82-9.92-45.05-10.17-67.57-8.36-47.84,3.84-96.87,19.27-123.69,62C102,207.83,101.22,261,100.66,311c-.09,8.13-12.71,8.15-12.62,0C88.66,255.72,90.13,195.88,124.09,149.47Z"/><path class="cls-1" d="M149.28,178.49c26.23-28.35,70.74-40.83,107.79-45.62,39.35-5.08,77.28,4.82,98.85,40.4,24.29,40.06,28.62,94.37,27.48,140.06-.11,4.06-6.41,4.07-6.31,0,1-41.79-3-87.75-20.93-126.1C336.45,145.16,296.55,133,253,139.79c-34.16,5.34-75.22,16.75-99.24,43.17-29.47,32.43-32.29,86.68-30.62,128.2.16,4.06-6.15,4.06-6.31,0C115.08,268.08,118.35,211.93,149.28,178.49Z"/><path class="cls-1" d="M157.62,196c24.38-27.75,62.43-35.6,97.75-35.73,33.62-.13,75.25-2.57,93.82,30.92,19.19,34.59,21,81.55,17.82,119.93-.34,4-6.65,4.06-6.31,0,2.91-34.81.74-72.12-11.7-105.12-6.89-18.24-18.51-32.28-38.45-35.92-17.77-3.25-37.11-3.47-55.15-3.42-32.88.09-68.51,6.89-91.76,32.23-25.17,27.42-21.88,70.15-24.15,104.85-.26,4-6.57,4.07-6.3,0C135.48,268.09,132.43,224.71,157.62,196Z"/><path class="cls-1" d="M180.09,215.61c16.31-25.91,42.14-36,72-35.25,29,.72,57.69,5.67,73.33,32.65,17.15,29.59,12.33,65.36,16.58,98,.53,4-5.79,4-6.31,0-3.5-26.72-.52-55.08-9.44-80.86-11.9-34.35-40.5-42.58-74.19-43.42-30.59-.76-55.37,10.42-70,38.12-13.83,26.22-13.6,56.79-13.5,85.67,0,4.06-6.29,4.07-6.31,0C162.19,278.28,162.35,243.79,180.09,215.61Z"/><path class="cls-1" d="M256.4,200.26c58.6,1.89,65.88,73.74,64.75,117.52-.1,4.06-6.41,4.08-6.31,0,1-40.17-3.77-109.32-58.44-111.2-53.3-1.84-62.18,65.45-64.52,104.27-.24,4-6.55,4.07-6.3,0C188.13,268.42,199.29,198.42,256.4,200.26Z"/><path class="cls-1" d="M253,232.35c42-2.13,49.76,46.35,51.38,78.77.2,4.06-6.11,4.05-6.31,0-1.41-28.39-7.29-74.51-45.07-72.45-33.29,1.81-45.54,37-42.46,65.58.44,4-5.87,4-6.3,0C200.72,272,216.27,234.21,253,232.35Z"/><path class="cls-1" d="M261.63,260.72c18.62,3.07,29.37,24.42,22.65,41.5-1.47,3.74-7.58,2.11-6.08-1.68,6-15.32-4.28-33.41-21.27-33.46-18.44-.06-30.64,17.18-33.12,33.93-.6,4-6.68,2.31-6.09-1.68C220.76,278.84,238.82,257,261.63,260.72Z"/><path class="cls-1" d="M252.67,275.29c13.66,0,23.15,15,19.4,27.5-1.16,3.89-7.25,2.23-6.08-1.68,2.57-8.6-3.67-19.49-13.32-19.5S236.61,292.25,239.11,301c1.13,3.91-5,5.58-6.08,1.68C229.38,290,239,275.29,252.67,275.29Z"/></g></g></g></g></svg>