<svg xmlns="http://www.w3.org/2000/svg" viewBox="0 0 229.28 251.7"><defs><style>.cls-1{fill:#d5f2fd2f;}</style></defs><g id="Layer_2" data-name="Layer 2"><g id="Graphic_Elements" data-name="Graphic Elements"><g id="Layer_8" data-name="Layer 8"><path class="cls-1" d="M223.39,71.65c0-1.09,0-2.19,0-3.28.32-10.64,2.4-21.23,1.85-31.84-.89-17-10-27.45-23.95-33.05C186.57-2.46,170,0,154.8,4.81c-6.32,2-12.67,4.42-18,8.75-7.77,6.35-12.56,16.11-18.57,24.5C102.05,60.7,73.06,57.22,51,67.56,38.21,73.53,27.36,83.78,18,95.2c-5.94,7.28-11.43,15.24-14.56,24.41-3,8.77-3.7,18.3-3.41,27.64.51,16.69,4.22,33.43,12.17,47.49C24,215.5,42.14,220.36,59.91,231.64a131.63,131.63,0,0,0,62.45,19.79c24.17,1.5,49.62-3.14,69.42-18.94,8.3-6.62,20.31-18.06,23.52-28.8,7.32-24.46,14.74-49.57,13.92-75.22C228.61,109.39,223.44,90.71,223.39,71.65Z"/></g></g></g></svg>