<svg xmlns="http://www.w3.org/2000/svg" viewBox="0 0 257.11 221.12"><defs><style>.cls-1{fill:#005270;}</style></defs><g id="Layer_2" data-name="Layer 2"><g id="Graphic_Elements" data-name="Graphic Elements"><g id="Layer_10" data-name="Layer 10"><path class="cls-1" d="M64.5,203.7c-10.17-6.29-19.67-13.77-29-21.24C23,172.53,10.16,161.82,4.4,147-7.26,117,5.61,62.23,27,38.86,40.84,23.67,69.67,13.15,89,6.78a132.43,132.43,0,0,1,70.53-3.61,133,133,0,0,1,87.35,67.6c6.1,11.79,10.44,24.79,10.24,38.06-.26,17.31-8.18,33.66-18,47.88-17.3,25-41.5,45.51-69.89,56.27s-61,11.24-88.84-.9A127.29,127.29,0,0,1,64.5,203.7Z"/></g></g></g></svg>