<?xml version="1.0" encoding="utf-8"?>
<!-- Generator: Adobe Illustrator 26.1.0, SVG Export Plug-In . SVG Version: 6.00 Build 0)  -->
<svg version="1.1" id="Layer_1" xmlns="http://www.w3.org/2000/svg" xmlns:xlink="http://www.w3.org/1999/xlink" x="0px" y="0px"
	 viewBox="0 0 624.7 800" style="enable-background:new 0 0 624.7 800;" xml:space="preserve">
<style type="text/css">
	.st0{fill:#F3F0E7;}
</style>
<g id="Layer_2_00000152957469967268006020000005504451274907380900_">
	<g id="Capa_1">
		<path class="st0" d="M562.8,50.1H437.6h-0.4C425.5,34.3,407.1,25,387.5,25h-32.4C341.9,1.4,312-7,288.4,6.2
			c-7.9,4.4-14.4,10.9-18.9,18.9h-32.4c-19.6,0-38,9.3-49.7,25.1h-0.4H61.8C27.7,50.2,0,77.8,0,111.9v626.2
			C0,772.3,27.7,800,61.8,800h501c34.1,0,61.8-27.7,61.8-61.8V111.9C624.6,77.8,597,50.1,562.8,50.1z M198.8,86.9
			c0-21.2,17.2-38.3,38.4-38.4h39.9c5,0,9.4-3.1,11.1-7.8c4.6-13.4,19.2-20.5,32.6-15.8c7.4,2.6,13.3,8.4,15.8,15.8
			c1.7,4.7,6.1,7.8,11.1,7.8h39.9c21.2,0,38.3,17.2,38.4,38.4v38.3h-227L198.8,86.9z M601.2,738.2c0,21.2-17.2,38.3-38.3,38.4h-501
			c-21.2,0-38.3-17.2-38.4-38.4V111.9c0-21.2,17.2-38.3,38.4-38.4h115c-1,4.4-1.5,8.8-1.5,13.3V137c0,6.5,5.3,11.7,11.7,11.7h0
			h250.5c6.5,0,11.7-5.3,11.8-11.7V86.9c0-4.5-0.5-8.9-1.5-13.3h115c21.2,0,38.3,17.2,38.3,38.4L601.2,738.2z"/>
		<path class="st0" d="M562.8,100.2h-75.1c-6.5,0-11.7,5.3-11.7,11.7c0,6.5,5.3,11.7,11.7,11.7h63.4v439.9h-126
			c-20.3,0-36.8,16.5-36.8,36.8v75.2c0,6.5,5.3,11.7,11.7,11.7c6.5,0,11.7-5.3,11.7-11.7v-75.1c0-7.3,6-13.3,13.3-13.3h109.4
			L395.1,726.4H73.6V123.7H137c6.5,0,11.7-5.3,11.7-11.7c0-6.5-5.3-11.7-11.7-11.7H61.8c-6.5,0-11.7,5.2-11.7,11.7c0,0,0,0,0,0
			v626.2c0,6.5,5.2,11.7,11.7,11.7c0,0,0,0,0,0H400c0.4,0,0.7,0,1.1-0.1c0.2,0,0.4,0,0.5-0.1l0.6-0.1l0.6-0.2c0.2,0,0.3-0.1,0.5-0.1
			c0.2-0.1,0.4-0.1,0.6-0.2c0.2,0,0.3-0.1,0.5-0.2c0.2-0.1,0.4-0.2,0.6-0.3l0.5-0.2c0.2-0.1,0.4-0.2,0.6-0.3l0.4-0.3
			c0.2-0.2,0.4-0.3,0.6-0.5l0.3-0.2c0.3-0.3,0.6-0.5,0.9-0.8l162.8-162.8c0,0,0,0,0-0.1c0.4-0.3,0.7-0.7,1-1.1l0.2-0.3
			c0.3-0.4,0.6-0.8,0.8-1.3c0-0.1,0-0.1,0.1-0.2c0.2-0.4,0.4-0.8,0.6-1.3c0-0.1,0.1-0.2,0.1-0.3c0.2-0.5,0.3-1,0.4-1.5
			c0,0,0,0,0-0.1c0.1-0.5,0.1-0.9,0.2-1.4c0-0.1,0-0.3,0-0.4s0-0.3,0-0.4V111.9C574.5,105.5,569.3,100.3,562.8,100.2z"/>
		<path class="st0" d="M312.3,50.1c-6.5,0-11.7,5.3-11.7,11.7s5.3,11.7,11.7,11.7c6.5,0,11.7-5.3,11.7-11.7c0-3.1-1.2-6.1-3.4-8.3
			C318.4,51.3,315.4,50.1,312.3,50.1z"/>
		<path class="st0" d="M362.4,236.4h125.2c6.5,0,11.7-5.3,11.7-11.7c0-6.5-5.3-11.7-11.7-11.7H362.4c-6.5,0-11.7,5.2-11.7,11.7
			C350.7,231.1,355.9,236.4,362.4,236.4C362.4,236.4,362.4,236.4,362.4,236.4z"/>
		<path class="st0" d="M324.9,286.5h162.8c6.5-0.2,11.6-5.6,11.4-12.1c-0.2-6.2-5.2-11.2-11.4-11.4H324.9
			c-6.5,0.2-11.6,5.6-11.4,12.1C313.6,281.3,318.6,286.3,324.9,286.5z"/>
		<path class="st0" d="M487.7,313.1H362.4c-6.5,0-11.7,5.3-11.7,11.7c0,6.5,5.3,11.7,11.7,11.7h125.2c6.5,0,11.7-5.3,11.7-11.7
			C499.4,318.4,494.2,313.1,487.7,313.1z"/>
		<path class="st0" d="M487.7,363.2H137c-6.5,0-11.7,5.3-11.7,11.7c0,6.5,5.3,11.7,11.7,11.7h350.7c6.5,0,11.7-5.3,11.7-11.7
			C499.4,368.5,494.2,363.2,487.7,363.2z"/>
		<path class="st0" d="M487.7,413.3H137c-6.5,0-11.7,5.3-11.7,11.7c0,6.5,5.3,11.7,11.7,11.7h350.7c6.5,0,11.7-5.3,11.7-11.7
			C499.4,418.6,494.2,413.3,487.7,413.3z"/>
		<path class="st0" d="M487.7,463.4H137c-6.5,0-11.7,5.3-11.7,11.7c0,6.5,5.3,11.7,11.7,11.7h350.7c6.5,0,11.7-5.3,11.7-11.7
			C499.4,468.7,494.2,463.4,487.7,463.4z"/>
		<path class="st0" d="M499.4,525.2c0-6.5-5.3-11.7-11.7-11.7H137c-6.5,0-11.8,5.3-11.8,11.8S130.5,537,137,537h350.7
			C494.2,537,499.4,531.7,499.4,525.2C499.4,525.3,499.4,525.2,499.4,525.2z"/>
		<path class="st0" d="M349.9,563.6H249.7c-6.5,0-11.7,5.2-11.8,11.7c0,6.5,5.2,11.7,11.7,11.8c0,0,0,0,0,0h100.2
			c6.5,0,11.7-5.3,11.7-11.8C361.6,568.9,356.4,563.6,349.9,563.6z"/>
		<path class="st0" d="M349.9,613.7h-50.1c-6.5,0-11.7,5.3-11.7,11.8c0,6.5,5.3,11.7,11.7,11.7h50.1c6.5,0,11.7-5.2,11.8-11.7
			C361.7,619,356.4,613.7,349.9,613.7C349.9,613.7,349.9,613.7,349.9,613.7z"/>
		<path class="st0" d="M125.2,262.2c0,6.5,5.2,11.8,11.7,11.8c0,0,0,0,0.1,0h50.9v50.9c0,6.5,5.2,11.7,11.7,11.7
			c6.5,0,11.7-5.2,11.7-11.7c0,0,0,0,0,0V274h50.9c6.5,0,11.7-5.3,11.7-11.7c0-6.5-5.3-11.7-11.7-11.7h-50.9v-50.9
			c0-6.5-5.2-11.7-11.7-11.7c-6.5,0-11.7,5.2-11.7,11.7c0,0,0,0,0,0v50.9H137C130.5,250.5,125.2,255.7,125.2,262.2
			C125.2,262.2,125.2,262.2,125.2,262.2z"/>
	</g>
</g>
</svg>
