<svg xmlns="http://www.w3.org/2000/svg" viewBox="0 0 550.37 116.65"><defs><style>.cls-1{fill:#083654;}.cls-2,.cls-3{fill:#073654;}.cls-3{fill-rule:evenodd;}</style></defs><g id="Layer_2" data-name="Layer 2"><g id="Layer_1-2" data-name="Layer 1"><path class="cls-1" d="M32,67.54v2.1H0v-2.1ZM5.55,69.49v.15a5.09,5.09,0,0,0-3.67,1.43A5,5,0,0,0,.5,74.79v.55l-.5,0v-5.9Zm6.86,26.06V99.2h-4v-.5h.65a3,3,0,0,0,2.22-.92,3.25,3.25,0,0,0,1-2.23Zm7.35-31.2V99.2h-7.5V64.35Zm-.15,31.2h.15a3.24,3.24,0,0,0,1,2.23A3.07,3.07,0,0,0,23,98.7h.65v.5h-4ZM32,69.49v5.9l-.5,0v-.55a5,5,0,0,0-1.38-3.72,5.15,5.15,0,0,0-3.72-1.43v-.15ZM19.76,54.1V89h-7.5V54.1ZM32,65.59v2.1H0v-2.1Zm-5.53.16V65.6a5.11,5.11,0,0,0,3.66-1.43,5,5,0,0,0,1.37-3.72V59.9l.5,0v5.9ZM0,65.75v-5.9l.5,0v.55a5,5,0,0,0,1.38,3.72A5.24,5.24,0,0,0,5.62,65.6v.15Zm19.61-8V54.1h4v.5H23a3,3,0,0,0-2.23.93,3.2,3.2,0,0,0-1,2.22Zm-7.2,0h-.15a3.21,3.21,0,0,0-1-2.22,3,3,0,0,0-2.22-.93H8.41v-.5h4Z"/><path class="cls-1" d="M38.76,67.85h-.15a3.23,3.23,0,0,0-1-2.22,3,3,0,0,0-2.22-.93h-.65v-.5h4Zm0,27.7V99.2h-4v-.5h.65a3,3,0,0,0,2.22-.92,3.25,3.25,0,0,0,1-2.23ZM46.11,64.2v35h-7.5v-35ZM62.76,80.7v2.15H45.61V80.7ZM46,67.85V64.2h4v.5h-.65a3,3,0,0,0-2.23.93,3.17,3.17,0,0,0-1,2.22Zm0,27.7h.15a3.2,3.2,0,0,0,1,2.23,3.07,3.07,0,0,0,2.23.92H50v.5H46Zm16.5-27.7h-.15a3,3,0,0,0-1-2.22,3.13,3.13,0,0,0-2.25-.93h-.65v-.5h4Zm0,27.7V99.2h-4v-.5h.65a3.16,3.16,0,0,0,2.25-.92,3,3,0,0,0,1-2.23ZM69.81,64.2v35h-7.5v-35Zm-.15,3.65V64.2h4v.5H73a3,3,0,0,0-2.23.93,3.22,3.22,0,0,0-1,2.22Zm0,27.7h.15a3.24,3.24,0,0,0,1,2.23A3.07,3.07,0,0,0,73,98.7h.65v.5h-4Z"/><path class="cls-1" d="M81.86,67.85h-.15a3.23,3.23,0,0,0-1-2.22,3,3,0,0,0-2.22-.93h-.65v-.5h4Zm0,27.7V99.2h-4v-.5h.65a3,3,0,0,0,2.22-.92,3.25,3.25,0,0,0,1-2.23ZM89.21,64.2v35h-7.5v-35Zm13.8,0v2.15h-14V64.2Zm-2.45,16.7V83H89.06V80.9Zm1.85,16.15,1.2,2.15H89.06V97.05Zm3.65-8.1-2.3,10.25H94l1.8-2.15a9.54,9.54,0,0,0,4.4-1,9.43,9.43,0,0,0,3.25-2.8A15,15,0,0,0,105.56,89Zm-5.5-12.75V81H95.81v-.1a4.27,4.27,0,0,0,3-1.27,4.22,4.22,0,0,0,1.2-3.08V76.2Zm0,6.7v4.8h-.5v-.4a4.14,4.14,0,0,0-1.2-3,4.34,4.34,0,0,0-3-1.25v-.1ZM103,63.3v1.45l-6.1-.55a19,19,0,0,0,2.32-.15c.82-.1,1.58-.21,2.28-.35A6.9,6.9,0,0,0,103,63.3Zm0,2.9v5.85h-.5v-.6a5.06,5.06,0,0,0-1.38-3.7,5.17,5.17,0,0,0-3.72-1.45v-.1Z"/><path class="cls-1" d="M126,67.85h-.15a3.23,3.23,0,0,0-1-2.22,3,3,0,0,0-2.22-.93H122v-.5h4Zm0,27.7V99.2h-4v-.5h.65a3.06,3.06,0,0,0,2.22-.92,3.25,3.25,0,0,0,1-2.23Zm7.35-31.35v35h-7.5v-35ZM150,80.7v2.15H132.81V80.7Zm-16.8-12.85V64.2h4v.5h-.65a3,3,0,0,0-2.23.93,3.17,3.17,0,0,0-1,2.22Zm0,27.7h.15a3.2,3.2,0,0,0,1,2.23,3.07,3.07,0,0,0,2.23.92h.65v.5h-4Zm16.5-27.7h-.15a3,3,0,0,0-.95-2.22,3.13,3.13,0,0,0-2.25-.93h-.65v-.5h4Zm0,27.7V99.2h-4v-.5h.65a3.16,3.16,0,0,0,2.25-.92,3,3,0,0,0,.95-2.23ZM157,64.2v35h-7.5v-35Zm-.15,3.65V64.2h4v.5h-.65a3,3,0,0,0-2.23.93,3.17,3.17,0,0,0-1,2.22Zm0,27.7H157a3.2,3.2,0,0,0,1,2.23,3.07,3.07,0,0,0,2.23.92h.65v.5h-4Z"/><path class="cls-1" d="M184.06,63.5a22.83,22.83,0,0,1,10.42,2.23A16.26,16.26,0,0,1,201.33,72a18.53,18.53,0,0,1,2.43,9.7,18.55,18.55,0,0,1-2.43,9.68,16.33,16.33,0,0,1-6.85,6.3,25.59,25.59,0,0,1-20.85,0,16.21,16.21,0,0,1-6.82-6.28,18.68,18.68,0,0,1-2.4-9.7,18.7,18.7,0,0,1,2.4-9.67,16.07,16.07,0,0,1,6.82-6.3A22.88,22.88,0,0,1,184.06,63.5Zm0,34.3a9.72,9.72,0,0,0,6.1-2,12.73,12.73,0,0,0,4-5.58,23.64,23.64,0,0,0,1.4-8.55,23.64,23.64,0,0,0-1.4-8.55,12.63,12.63,0,0,0-4-5.57,10.36,10.36,0,0,0-12.18,0,12.51,12.51,0,0,0-4,5.57,23.42,23.42,0,0,0-1.4,8.55,23.42,23.42,0,0,0,1.4,8.55,12.6,12.6,0,0,0,4,5.58A9.74,9.74,0,0,0,184.06,97.8Z"/><path class="cls-1" d="M210.66,64.2v3h-.15a2.32,2.32,0,0,0-.78-1.8,2.73,2.73,0,0,0-1.87-.7h-.8v-.5Zm7.35,0v22a14.86,14.86,0,0,0,1.17,6.15,9,9,0,0,0,3.35,4,9.32,9.32,0,0,0,5.18,1.4A10.13,10.13,0,0,0,233,96.43a8.75,8.75,0,0,0,3.43-3.78,13,13,0,0,0,1.2-5.8V64.2h3.6V86.55a14,14,0,0,1-1.73,7.1,11.61,11.61,0,0,1-4.95,4.63,17.15,17.15,0,0,1-7.77,1.62,22,22,0,0,1-8.95-1.62,11.9,11.9,0,0,1-5.48-4.6,13.34,13.34,0,0,1-1.82-7.08V64.2Zm3.45,0v.5h-.8a2.74,2.74,0,0,0-1.88.7,2.34,2.34,0,0,0-.77,1.8h-.1v-3Zm16.3,0v3h-.15a2.32,2.32,0,0,0-.78-1.8,2.73,2.73,0,0,0-1.87-.7h-.8v-.5Zm6.9,0v.5h-.8a2.74,2.74,0,0,0-1.88.7,2.34,2.34,0,0,0-.77,1.8h-.1v-3Z"/><path class="cls-1" d="M260.06,63.5c.66,0,1.49,0,2.47.1s2,.16,3.05.28,2,.23,2.75.35a7,7,0,0,1,1.63.37l-.6,6.75h-.5a5.11,5.11,0,0,0-1.93-4.17,7.83,7.83,0,0,0-5.12-1.58,7.35,7.35,0,0,0-4.68,1.4,4.51,4.51,0,0,0-1.87,3.4,3.51,3.51,0,0,0,.95,2.6,11.05,11.05,0,0,0,2.55,2l9.55,6.2a8.51,8.51,0,0,1,4.5,8.3,9.82,9.82,0,0,1-3.75,7.63q-3.51,2.71-9.5,2.72a24.08,24.08,0,0,1-4.28-.37,17.34,17.34,0,0,1-3.67-1,7.73,7.73,0,0,1-2.55-1.63,6.87,6.87,0,0,1-.35-2.65,14,14,0,0,1,.47-3.15,9.93,9.93,0,0,1,1.08-2.65h.45a8.57,8.57,0,0,0,.92,4.73,8.43,8.43,0,0,0,3.3,3.45,9.68,9.68,0,0,0,5.18,1.22,7.53,7.53,0,0,0,5.1-1.67A5.11,5.11,0,0,0,267,92.2a4.6,4.6,0,0,0-.93-2.8,9.2,9.2,0,0,0-3-2.4l-8.75-5.8a9.27,9.27,0,0,1-3.85-3.85,9.11,9.11,0,0,1-1-5.1,9.76,9.76,0,0,1,1.55-4.57,8.74,8.74,0,0,1,3.57-3.08A12.43,12.43,0,0,1,260.06,63.5ZM270,64l-.1,1H264V64Z"/><path class="cls-1" d="M280.91,67.85h-.15a3.23,3.23,0,0,0-1-2.22,3,3,0,0,0-2.22-.93h-.65v-.5h4Zm0,27.7V99.2h-4v-.5h.65a3.06,3.06,0,0,0,2.22-.92,3.25,3.25,0,0,0,1-2.23Zm7.35-31.35v35h-7.5v-35Zm13.8,0v2.15H288.11V64.2Zm-2.45,16.7V83h-11.5V80.9Zm1.85,16.15,1.2,2.15H288.11V97.05Zm3.65-8.1-2.3,10.25H293l1.8-2.15a9.54,9.54,0,0,0,4.4-1,9.43,9.43,0,0,0,3.25-2.8A15,15,0,0,0,304.61,89Zm-5.5-12.75V81h-4.75v-.1a4.27,4.27,0,0,0,3.05-1.27,4.22,4.22,0,0,0,1.2-3.08V76.2Zm0,6.7v4.8h-.5v-.4a4.14,4.14,0,0,0-1.2-3A4.34,4.34,0,0,0,294.86,83v-.1Zm2.45-19.6v1.45L296,64.2a19,19,0,0,0,2.32-.15c.82-.1,1.58-.21,2.28-.35A6.9,6.9,0,0,0,302.06,63.3Zm0,2.9v5.85h-.5v-.6a5.06,5.06,0,0,0-1.38-3.7,5.17,5.17,0,0,0-3.72-1.45v-.1Z"/><path class="cls-1" d="M341,63.5a22.83,22.83,0,0,1,10.42,2.23A16.32,16.32,0,0,1,358.28,72a18.53,18.53,0,0,1,2.43,9.7,18.55,18.55,0,0,1-2.43,9.68,16.39,16.39,0,0,1-6.85,6.3,25.59,25.59,0,0,1-20.85,0,16.21,16.21,0,0,1-6.82-6.28,18.68,18.68,0,0,1-2.4-9.7,18.7,18.7,0,0,1,2.4-9.67,16.07,16.07,0,0,1,6.82-6.3A22.88,22.88,0,0,1,341,63.5Zm0,34.3a9.72,9.72,0,0,0,6.1-2,12.73,12.73,0,0,0,3.95-5.58,23.64,23.64,0,0,0,1.4-8.55,23.64,23.64,0,0,0-1.4-8.55,12.63,12.63,0,0,0-3.95-5.57,10.36,10.36,0,0,0-12.18,0,12.44,12.44,0,0,0-4,5.57,23.42,23.42,0,0,0-1.4,8.55,23.42,23.42,0,0,0,1.4,8.55,12.52,12.52,0,0,0,4,5.58A9.74,9.74,0,0,0,341,97.8Z"/><path class="cls-1" d="M368,67.85h-.15a3.23,3.23,0,0,0-1-2.22,3,3,0,0,0-2.22-.93H364v-.5h4Zm0,27.7V99.2h-4v-.5h.65a3.06,3.06,0,0,0,2.22-.92,3.25,3.25,0,0,0,1-2.23Zm7.35-31.35v35h-7.5v-35Zm13.8,0v2.15H375.16V64.2Zm-2.45,16.7V83h-11.5V80.9Zm-11.5,14.65h.15a3.2,3.2,0,0,0,1,2.23,3.07,3.07,0,0,0,2.23.92h.65v.5h-4Zm11.5-19.35V81h-4.75v-.1a4.27,4.27,0,0,0,3-1.27,4.22,4.22,0,0,0,1.2-3.08V76.2Zm0,6.7v4.8h-.5v-.4a4.14,4.14,0,0,0-1.2-3,4.34,4.34,0,0,0-3-1.25v-.1Zm2.45-19.6v1.45L383,64.2a19,19,0,0,0,2.32-.15c.82-.1,1.58-.21,2.28-.35A6.9,6.9,0,0,0,389.11,63.3Zm0,2.9v5.55h-.5v-.5a4.58,4.58,0,0,0-4.9-4.9V66.2Z"/><path class="cls-1" d="M417.76,64.2V97.7a11.14,11.14,0,0,1-1.1,5,11.46,11.46,0,0,1-3,3.77,12.3,12.3,0,0,1-4.27,2.28,12.87,12.87,0,0,1-5,.47v-.45a8.1,8.1,0,0,0,3.4-2.67,11.76,11.76,0,0,0,1.87-4,18.21,18.21,0,0,0,.58-4.53V64.2Zm-7.35,3.65h-.15a3.23,3.23,0,0,0-1-2.22,3,3,0,0,0-2.22-.93h-.65v-.5h4Zm7.2,0V64.2h4v.5H421a3,3,0,0,0-2.23.93,3.17,3.17,0,0,0-1,2.22Z"/><path class="cls-1" d="M428.91,67.85h-.15a3.23,3.23,0,0,0-1-2.22,3,3,0,0,0-2.22-.93h-.65v-.5h4Zm0,27.7V99.2h-4v-.5h.65a3.06,3.06,0,0,0,2.22-.92,3.25,3.25,0,0,0,1-2.23Zm7.35-31.35v35h-7.5v-35Zm13.8,0v2.15H436.11V64.2Zm-2.45,16.7V83h-11.5V80.9Zm1.85,16.15,1.2,2.15H436.11V97.05Zm3.65-8.1-2.3,10.25H441l1.8-2.15a9.54,9.54,0,0,0,4.4-1,9.43,9.43,0,0,0,3.25-2.8A15,15,0,0,0,452.61,89Zm-5.5-12.75V81h-4.75v-.1a4.27,4.27,0,0,0,3.05-1.27,4.22,4.22,0,0,0,1.2-3.08V76.2Zm0,6.7v4.8h-.5v-.4a4.14,4.14,0,0,0-1.2-3A4.34,4.34,0,0,0,442.86,83v-.1Zm2.45-19.6v1.45L444,64.2a19,19,0,0,0,2.32-.15c.82-.1,1.58-.21,2.28-.35A6.9,6.9,0,0,0,450.06,63.3Zm0,2.9v5.85h-.5v-.6a5.06,5.06,0,0,0-1.38-3.7,5.17,5.17,0,0,0-3.72-1.45v-.1Z"/><path class="cls-1" d="M468.26,63.5c.66,0,1.49,0,2.47.1s2,.16,3,.28,2,.23,2.75.35a7.11,7.11,0,0,1,1.63.37l-.6,6.75h-.5a5.13,5.13,0,0,0-1.93-4.17A7.83,7.83,0,0,0,470,65.6a7.35,7.35,0,0,0-4.68,1.4,4.51,4.51,0,0,0-1.87,3.4,3.51,3.51,0,0,0,1,2.6,11.05,11.05,0,0,0,2.55,2l9.55,6.2a8.51,8.51,0,0,1,4.5,8.3,9.82,9.82,0,0,1-3.75,7.63q-3.51,2.71-9.5,2.72a24,24,0,0,1-4.28-.37,17.34,17.34,0,0,1-3.67-1,7.73,7.73,0,0,1-2.55-1.63,6.87,6.87,0,0,1-.35-2.65,14,14,0,0,1,.47-3.15,9.61,9.61,0,0,1,1.08-2.65h.45a8.57,8.57,0,0,0,.92,4.73,8.43,8.43,0,0,0,3.3,3.45,9.68,9.68,0,0,0,5.18,1.22,7.53,7.53,0,0,0,5.1-1.67,5.11,5.11,0,0,0,1.8-3.93,4.6,4.6,0,0,0-.93-2.8,9.31,9.31,0,0,0-3-2.4l-8.75-5.8a9.27,9.27,0,0,1-3.85-3.85,9.11,9.11,0,0,1-1-5.1,9.76,9.76,0,0,1,1.55-4.57,8.68,8.68,0,0,1,3.57-3.08A12.43,12.43,0,0,1,468.26,63.5Zm9.95.5-.1,1h-5.9V64Z"/><path class="cls-1" d="M488.21,64.2v3h-.15a2.32,2.32,0,0,0-.78-1.8,2.73,2.73,0,0,0-1.87-.7h-.8v-.5Zm7.35,0v22a14.86,14.86,0,0,0,1.17,6.15,9,9,0,0,0,3.35,4,9.32,9.32,0,0,0,5.18,1.4,10.13,10.13,0,0,0,5.27-1.32A8.81,8.81,0,0,0,514,92.65a13,13,0,0,0,1.2-5.8V64.2h3.6V86.55a14,14,0,0,1-1.73,7.1,11.61,11.61,0,0,1-4.95,4.63,17.15,17.15,0,0,1-7.77,1.62,22,22,0,0,1-8.95-1.62,11.9,11.9,0,0,1-5.48-4.6,13.25,13.25,0,0,1-1.82-7.08V64.2Zm3.45,0v.5h-.8a2.74,2.74,0,0,0-1.88.7,2.31,2.31,0,0,0-.77,1.8h-.1v-3Zm16.3,0v3h-.15a2.32,2.32,0,0,0-.78-1.8,2.73,2.73,0,0,0-1.87-.7h-.8v-.5Zm6.9,0v.5h-.8a2.74,2.74,0,0,0-1.88.7,2.31,2.31,0,0,0-.77,1.8h-.1v-3Z"/><path class="cls-1" d="M537.61,63.5c.66,0,1.49,0,2.47.1s2,.16,3,.28,2,.23,2.75.35a7.11,7.11,0,0,1,1.63.37l-.6,6.75h-.5a5.13,5.13,0,0,0-1.93-4.17,7.83,7.83,0,0,0-5.12-1.58,7.35,7.35,0,0,0-4.68,1.4,4.51,4.51,0,0,0-1.87,3.4,3.51,3.51,0,0,0,1,2.6,11.05,11.05,0,0,0,2.55,2l9.55,6.2a8.51,8.51,0,0,1,4.5,8.3,9.82,9.82,0,0,1-3.75,7.63q-3.51,2.71-9.5,2.72a24,24,0,0,1-4.28-.37,17.34,17.34,0,0,1-3.67-1,7.73,7.73,0,0,1-2.55-1.63,6.87,6.87,0,0,1-.35-2.65,14,14,0,0,1,.47-3.15,9.61,9.61,0,0,1,1.08-2.65h.45a8.57,8.57,0,0,0,.92,4.73,8.43,8.43,0,0,0,3.3,3.45,9.68,9.68,0,0,0,5.18,1.22,7.53,7.53,0,0,0,5.1-1.67,5.11,5.11,0,0,0,1.8-3.93,4.6,4.6,0,0,0-.93-2.8,9.31,9.31,0,0,0-3-2.4l-8.75-5.8A9.27,9.27,0,0,1,528,77.35a9.11,9.11,0,0,1-1-5.1,9.76,9.76,0,0,1,1.55-4.57,8.68,8.68,0,0,1,3.57-3.08A12.43,12.43,0,0,1,537.61,63.5Zm9.95.5-.1,1h-5.9V64Z"/><rect class="cls-2" x="0.01" y="113.57" width="550.37" height="3.08"/><path class="cls-2" d="M328.22,1a109.38,109.38,0,0,0-14.41-1A62.47,62.47,0,0,0,307,.34a34.85,34.85,0,0,0-4.81.86A18.46,18.46,0,0,0,299,2.3,9.8,9.8,0,0,0,295.38,5c-.17.22-.32.45-.47.68a7.24,7.24,0,0,0-.78-1,10.29,10.29,0,0,0-3.37-2.33A25.42,25.42,0,0,0,283.85.47,58.12,58.12,0,0,0,276,0a108.93,108.93,0,0,0-14.4,1,.93.93,0,0,0-.81.92V6.52h-2.62a1,1,0,0,0-.67.27.9.9,0,0,0-.28.65V49.06a.9.9,0,0,0,.28.65,1,1,0,0,0,.67.27h73.46a1,1,0,0,0,.67-.27.9.9,0,0,0,.28-.65V7.44a.9.9,0,0,0-.28-.65,1,1,0,0,0-.67-.27H329V2a.93.93,0,0,0-.8-.92m-32.39,8a5,5,0,0,1,.36-1.91,5,5,0,0,1,.86-1.35,8.13,8.13,0,0,1,2.67-1.88,22.33,22.33,0,0,1,6.16-1.64,55.27,55.27,0,0,1,7.35-.45c3.56,0,7,.26,9.52.52,1.26.12,2.3.25,3,.35l.34,0V38.42a102.33,102.33,0,0,0-12.89-.89,58.7,58.7,0,0,0-6.64.34,31.7,31.7,0,0,0-4.67.86,17.54,17.54,0,0,0-3.06,1.1,9.91,9.91,0,0,0-3,2.11ZM263.7,2.75a102.13,102.13,0,0,1,12.89-.91,56.83,56.83,0,0,1,6.43.34,31.07,31.07,0,0,1,4.4.8,16.2,16.2,0,0,1,2.76,1A7.62,7.62,0,0,1,293,6.08a4.78,4.78,0,0,1,.73,1.35A5,5,0,0,1,294,9.07V41.94a10,10,0,0,0-3.1-2.15A24.1,24.1,0,0,0,284.2,38a56.45,56.45,0,0,0-7.61-.46,102.33,102.33,0,0,0-12.89.89ZM260.24,46h28.18a.93.93,0,0,0,0-1.85H260.24V8.36h1.62V39.48a.93.93,0,0,0,.32.7.88.88,0,0,0,.74.21h0a99.9,99.9,0,0,1,13.65-1,56.84,56.84,0,0,1,6.43.33,31,31,0,0,1,4.4.81,17.11,17.11,0,0,1,2.76,1A7.64,7.64,0,0,1,293,43.61a4.65,4.65,0,0,1,.73,1.35A5,5,0,0,1,294,46.6v1.53H260.24ZM329.58,8.36V44.15l-.22,0H299.81a.93.93,0,0,0,0,1.85h29.55a.83.83,0,0,0,.22,0v2.19H295.83V46.6a5,5,0,0,1,.36-1.91,4.83,4.83,0,0,1,.86-1.35,8,8,0,0,1,2.67-1.88,22.33,22.33,0,0,1,6.16-1.64,53.64,53.64,0,0,1,7.35-.45c3.56,0,7,.26,9.52.51,1.26.13,2.3.26,3,.36l.83.11.22,0h.07a.87.87,0,0,0,.74-.21.89.89,0,0,0,.32-.7V8.36Z"/><path class="cls-2" d="M328.22,1.62A106.42,106.42,0,0,0,313.81.57,62.47,62.47,0,0,0,307,.92a33.43,33.43,0,0,0-4.81.85A20.34,20.34,0,0,0,299,2.87a9.71,9.71,0,0,0-3.6,2.66,8,8,0,0,0-.47.67,7.24,7.24,0,0,0-.78-1,10.29,10.29,0,0,0-3.37-2.33A25.42,25.42,0,0,0,283.85,1,59.81,59.81,0,0,0,276,.57a106,106,0,0,0-14.4,1.05.92.92,0,0,0-.81.91V7.09h-2.62a1,1,0,0,0-.67.27.9.9,0,0,0-.28.65V49.63a.9.9,0,0,0,.28.65,1,1,0,0,0,.67.27h73.46a1,1,0,0,0,.67-.27.9.9,0,0,0,.28-.65V8a.9.9,0,0,0-.28-.65,1,1,0,0,0-.67-.27H329V2.53a.92.92,0,0,0-.8-.91m-32.39,8a4.73,4.73,0,0,1,1.22-3.26,8.11,8.11,0,0,1,2.67-1.87,21.65,21.65,0,0,1,6.16-1.64,53.64,53.64,0,0,1,7.35-.45c3.56,0,7,.25,9.52.51,1.26.13,2.3.25,3,.35l.34.05V39a102.33,102.33,0,0,0-12.89-.89,58.7,58.7,0,0,0-6.64.34,33.07,33.07,0,0,0-4.67.86,17.54,17.54,0,0,0-3.06,1.1,10.08,10.08,0,0,0-3,2.11ZM263.7,3.33a100.22,100.22,0,0,1,12.89-.91,56.84,56.84,0,0,1,6.43.33,31.07,31.07,0,0,1,4.4.8,16.2,16.2,0,0,1,2.76,1A7.73,7.73,0,0,1,293,6.65,4.78,4.78,0,0,1,293.73,8,5,5,0,0,1,294,9.64V42.51a10.22,10.22,0,0,0-3.1-2.15,24.1,24.1,0,0,0-6.69-1.79,54.86,54.86,0,0,0-7.61-.47A102.33,102.33,0,0,0,263.7,39Zm-3.46,43.21h28.18a.92.92,0,1,0,0-1.84H260.24V8.93h1.62V40.05a.92.92,0,0,0,1.06.92h0a101.75,101.75,0,0,1,13.65-1,56.83,56.83,0,0,1,6.43.34,31.07,31.07,0,0,1,4.4.8,16.2,16.2,0,0,1,2.76,1A7.62,7.62,0,0,1,293,44.18a4.78,4.78,0,0,1,.73,1.35,5,5,0,0,1,.26,1.64v1.54H260.24ZM329.58,8.93V44.72l-.22,0H299.81a.92.92,0,0,0,0,1.84h29.55a.83.83,0,0,0,.22,0v2.2H295.83V47.17a4.68,4.68,0,0,1,1.22-3.26A8,8,0,0,1,299.72,42a22.33,22.33,0,0,1,6.16-1.64,55.27,55.27,0,0,1,7.35-.45c3.56,0,7,.26,9.52.52,1.26.12,2.3.25,3,.35l.83.11.22,0h.07a.92.92,0,0,0,1.06-.92V8.93Z"/><rect class="cls-2" x="259.89" y="8.51" width="2.89" height="39.63"/><rect class="cls-2" x="327.28" y="8.05" width="3.26" height="40.93"/><path class="cls-3" d="M324.8,10.62a60.3,60.3,0,0,0-22.28,24.69A3.66,3.66,0,0,0,304.8,35a23.77,23.77,0,0,1,3-5.93c4.72.61,9.39-2.09,13.68-6.31a6.13,6.13,0,0,1-2.79-1.33,12.75,12.75,0,0,0,4.74-.72c.31-.35.62-.7.92-1.06,3.7-4.36,7.19-9.4,11.3-13.92-4.42-1-9.26-1.94-15.11.48a17.89,17.89,0,0,0-2.17,4.59,8.89,8.89,0,0,1,0-3.56A32.44,32.44,0,0,0,312.93,11a31.89,31.89,0,0,0-2.57,2.4,19.51,19.51,0,0,0-1,5.44,8.58,8.58,0,0,1-.91-3.2c-3.12,4.21-3.64,8.21-3,11.6,5.13-7.38,11-13.75,19.31-16.58"/><rect class="cls-2" x="262.37" y="42.13" width="31.72" height="6.02"/><rect class="cls-2" x="262.01" y="39.7" width="25.17" height="4.13"/><rect class="cls-2" x="285.89" y="40.98" width="6.43" height="3.58"/><rect class="cls-2" x="299.62" y="39.7" width="31.67" height="9.28"/><rect class="cls-2" x="295.26" y="43.19" width="7.26" height="5.79"/><rect class="cls-2" x="297.37" y="40.98" width="3.95" height="2.85"/></g></g></svg>