<?xml version="1.0" encoding="utf-8"?>
<!-- Generator: Adobe Illustrator 26.1.0, SVG Export Plug-In . SVG Version: 6.00 Build 0)  -->
<svg version="1.1" id="Layer_1" xmlns="http://www.w3.org/2000/svg" xmlns:xlink="http://www.w3.org/1999/xlink" x="0px" y="0px"
	 viewBox="0 0 737.5 537.5" style="enable-background:new 0 0 737.5 537.5;" xml:space="preserve">
<style type="text/css">
	.st0{fill:#F3F0E7;}
</style>
<g id="Layer_2_00000068639204391725632050000011577070935784829866_">
	<g id="Layer_1-2">
		<path class="st0" d="M668.8,0h-600C30.8,0,0,30.8,0,68.8v400c0,37.9,30.8,68.7,68.8,68.8h600c37.9,0,68.7-30.8,68.8-68.8v-400
			C737.5,30.8,706.7,0,668.8,0z M68.8,37.5h600c17.2,0,31.2,14,31.2,31.2V100H37.5V68.8C37.5,51.5,51.5,37.5,68.8,37.5z M668.8,500
			h-600c-17.2,0-31.2-14-31.2-31.2V137.5H700v331.2C700,486,686,500,668.8,500z M209.9,309.5c36.4,0,65.9-29.5,65.9-65.9
			c0-36.4-29.5-65.9-65.9-65.9S144,207.2,144,243.6c0,0,0,0,0,0l0,0C144,279.9,173.5,309.4,209.9,309.5z M209.9,215.2
			c15.7,0,28.4,12.7,28.4,28.4S225.6,272,209.9,272s-28.4-12.7-28.4-28.4l0,0C181.5,227.9,194.2,215.2,209.9,215.2z M209.9,339
			c-52.7,0.2-98.3,36.6-110.3,88l-0.2,0.8c-0.3,1.3-0.4,2.7-0.4,4c0,10.3,8.5,18.7,18.8,18.7c8.7,0,16.2-6.1,18.2-14.5v-0.1
			c9-40.7,49.3-66.5,90.1-57.5c28.5,6.3,50.9,28.5,57.4,57l0.1,0.5c2.3,10.1,12.3,16.5,22.4,14.2c8.6-1.9,14.7-9.5,14.7-18.3
			c0-1.4-0.1-2.7-0.5-4.1v0.1C308.5,376.8,263.6,339.2,209.9,339L209.9,339L209.9,339z M618.8,200h-200c-10.4,0-18.8,8.4-18.8,18.8
			s8.4,18.8,18.8,18.8h200c10.4,0,18.8-8.4,18.8-18.8S629.1,200,618.8,200z M618.8,300h-200c-10.4,0-18.8,8.4-18.8,18.8
			s8.4,18.8,18.8,18.8h200c10.4,0,18.8-8.4,18.8-18.8S629.1,300,618.8,300z M618.8,400h-200c-10.4,0-18.8,8.4-18.8,18.8
			s8.4,18.8,18.8,18.8h200c10.4,0,18.8-8.4,18.8-18.8S629.1,400,618.8,400z"/>
	</g>
</g>
</svg>
