<svg xmlns="http://www.w3.org/2000/svg" viewBox="0 0 499.36 413.53">
  <defs>
    <style>.cls-1{fill:#f3f0e7;}</style>
  </defs>
  <g id="Layer_2" data-name="Layer 2">
    <g id="Layer_2-2" data-name="Layer 2">
      <path class="cls-1"
        d="M249.58,259.32a44.2,44.2,0,1,1,44.2-44.2A44.25,44.25,0,0,1,249.58,259.32Zm0-73.4a29.2,29.2,0,1,0,29.2,29.2A29.23,29.23,0,0,0,249.58,185.92Z" />
      <path class="cls-1"
        d="M380.8,259.32a44.2,44.2,0,1,1,44.2-44.2A44.25,44.25,0,0,1,380.8,259.32Zm0-73.4a29.2,29.2,0,1,0,29.2,29.2A29.23,29.23,0,0,0,380.8,185.92Z" />
      <path class="cls-1"
        d="M432.45,413.53a22.1,22.1,0,0,1-2.91-.19,22.75,22.75,0,0,1-15-36.59V291.39a7.5,7.5,0,0,1,13.16-4.93l36.28,41.7a7.51,7.51,0,0,1,.25,9.54l-36.6,46.86a6,6,0,0,1-.63.71,7.75,7.75,0,0,0,10.58,11.31l42.85-52.92a17.73,17.73,0,0,0,.47-21.74L433.34,262a24.41,24.41,0,0,0-12.51-8.38l-16.78-4.81a7.5,7.5,0,1,1,4.13-14.42L425,239.17a39.36,39.36,0,0,1,20.14,13.48l47.58,60,.12.16a32.69,32.69,0,0,1-.75,40.25l-43.18,53.32a5.34,5.34,0,0,1-.6.66A22.62,22.62,0,0,1,432.45,413.53ZM429.5,311.44v46.31l19.06-24.41Z" />
      <path class="cls-1"
        d="M335.25,410.22a7.5,7.5,0,0,1-7.5-7.5V282.05a7.5,7.5,0,1,1,15,0V402.72A7.5,7.5,0,0,1,335.25,410.22Z" />
      <path class="cls-1"
        d="M277.73,246.59a7.5,7.5,0,0,1-1.9-14.76l9.86-2.59a120,120,0,0,1,46.36-2.91l19,2.5a7.5,7.5,0,1,1-2,14.87l-19-2.5a105,105,0,0,0-40.59,2.55l-9.86,2.59A7.42,7.42,0,0,1,277.73,246.59Z" />
      <path class="cls-1"
        d="M295.13,410.22a7.5,7.5,0,0,1-7.5-7.5V275.88A7.5,7.5,0,0,1,291,269.6l29-19a6.79,6.79,0,0,1,1.55-.77l32.18-11.69a7.5,7.5,0,1,1,5.12,14.1l-31.36,11.39-24.83,16.27V402.72A7.5,7.5,0,0,1,295.13,410.22Z" />
      <path class="cls-1"
        d="M334.84,296.88a8,8,0,0,1-1.37-.13l-39.7-7.33a7.5,7.5,0,1,1,2.72-14.75l39.7,7.33a7.5,7.5,0,0,1-1.35,14.88Z" />
      <path class="cls-1"
        d="M118.56,259.32a44.2,44.2,0,1,1,44.2-44.2A44.25,44.25,0,0,1,118.56,259.32Zm0-73.4a29.2,29.2,0,1,0,29.2,29.2A29.23,29.23,0,0,0,118.56,185.92Z" />
      <path class="cls-1"
        d="M66.91,413.53a22.62,22.62,0,0,1-15.82-6.45,6.17,6.17,0,0,1-.6-.66L7.31,353.1a32.71,32.71,0,0,1-.76-40.25c0-.06.09-.11.13-.16l47.58-60A39.36,39.36,0,0,1,74.4,239.17l16.78-4.81a7.5,7.5,0,0,1,4.13,14.42l-16.78,4.81A24.41,24.41,0,0,0,66,262L18.5,321.92A17.73,17.73,0,0,0,19,343.66l42.86,52.92A7.75,7.75,0,0,0,72.4,385.27a6,6,0,0,1-.63-.71L35.17,337.7a7.51,7.51,0,0,1,.25-9.54l36.28-41.7a7.5,7.5,0,0,1,13.16,4.93v85.36a22.75,22.75,0,0,1-15,36.59A21.84,21.84,0,0,1,66.91,413.53ZM50.8,333.34l19.06,24.41V311.44Z" />
      <path class="cls-1"
        d="M164.11,410.22a7.5,7.5,0,0,1-7.5-7.5V282.05a7.5,7.5,0,0,1,15,0V402.72A7.5,7.5,0,0,1,164.11,410.22Z" />
      <path class="cls-1"
        d="M221.63,246.59a7.42,7.42,0,0,1-1.91-.25l-9.86-2.59a105,105,0,0,0-40.59-2.55l-19,2.5a7.5,7.5,0,0,1-2-14.87l19-2.5a120,120,0,0,1,46.36,2.91l9.86,2.59a7.5,7.5,0,0,1-1.9,14.76Z" />
      <path class="cls-1"
        d="M204.23,410.22a7.5,7.5,0,0,1-7.5-7.5V279.93L171.9,263.66l-31.36-11.39a7.5,7.5,0,0,1,5.12-14.1l32.18,11.69a6.79,6.79,0,0,1,1.55.77l29,19a7.5,7.5,0,0,1,3.39,6.28V402.72A7.5,7.5,0,0,1,204.23,410.22Z" />
      <path class="cls-1"
        d="M164.52,296.88A7.5,7.5,0,0,1,163.17,282l39.7-7.33a7.5,7.5,0,0,1,2.72,14.75l-39.7,7.33A8,8,0,0,1,164.52,296.88Z" />
      <path class="cls-1"
        d="M245.77,94.37a7.5,7.5,0,0,1-7.5-7.5l0-79.37A7.49,7.49,0,0,1,245.72,0h0a7.5,7.5,0,0,1,7.5,7.5l0,79.37a7.5,7.5,0,0,1-7.5,7.5Z" />
      <path class="cls-1"
        d="M344,112.9a7.51,7.51,0,0,1-6.44-11.34l38.69-65a7.5,7.5,0,0,1,12.9,7.67l-38.7,65A7.48,7.48,0,0,1,344,112.9Z" />
      <path class="cls-1"
        d="M430.43,148.29a7.5,7.5,0,0,1-5-13.08L465.75,99a7.5,7.5,0,1,1,10,11.16l-40.33,36.22A7.48,7.48,0,0,1,430.43,148.29Z" />
      <path class="cls-1"
        d="M155.38,112.9a7.51,7.51,0,0,1-6.46-3.67l-38.69-65a7.5,7.5,0,0,1,12.9-7.67l38.69,65a7.51,7.51,0,0,1-6.44,11.34Z" />
      <path class="cls-1"
        d="M68.93,148.29a7.48,7.48,0,0,1-5-1.92L23.59,110.15A7.5,7.5,0,1,1,33.61,99L74,135.21a7.5,7.5,0,0,1-5,13.08Z" />
    </g>
  </g>
</svg>